<svg id="Calque_1" data-name="Calque 1" xmlns="http://www.w3.org/2000/svg" xmlns:xlink="http://www.w3.org/1999/xlink" viewBox="0 0 598.5 370.63"><defs><style>.cls-1,.cls-2{fill-rule:evenodd;}.cls-1{fill:url(#Dégradé_sans_nom_48);}.cls-2{fill:#fff;}</style><linearGradient id="Dégradé_sans_nom_48" x1="1751" y1="1046.46" x2="2032.54" y2="1046.46" gradientUnits="userSpaceOnUse"><stop offset="0" stop-color="#fff"/><stop offset="0.7" stop-color="#fff"/><stop offset="1" stop-color="#262626"/></linearGradient></defs><title>ureflect_logo [Converti]</title><path class="cls-1" d="M1751,861.14s.07,132.5,0,208.34c0,145.79,174.08,195.15,281.54,140.78V1040c0,151.9-193.3,132.36-193.3,6.48V861.14Z" transform="translate(-1751 -861.14)"/><path class="cls-2" d="M2032.54,1231.77H2122c0-64-.17-174.88-.17-175.94C2118,934.85,2247.54,933,2286,978.25c34.4-35.74,63.52-61.81,63.52-61.81q-2.64-2.81-5.43-5.48c-95.27-91.37-311.53-61.37-311.53,125.67,0,8.09,0,28.26,0,21.13Z" transform="translate(-1751 -861.14)"/></svg>